<svg xmlns="http://www.w3.org/2000/svg" viewBox="0 0 64 64"><path fill="#4bb34b" d="M0 0h64v64H0z"/><path d="M17.21 17l12.12-4.07a11.49 11.49 0 012-.55 5 5 0 011.34 0 11.49 11.49 0 012 .55L46.79 17A1.78 1.78 0 0148 18.64v16.59q0 12-14.6 18.2a3.58 3.58 0 01-2.8 0Q16 47.19 16 35.23V18.64A1.78 1.78 0 0117.21 17z" fill-rule="evenodd" fill="#fff"/><path d="M32.72 24.34a1 1 0 00-1.45 0l-7.66 8c-.34.35-.22.64.27.64H26v5.55a.44.44 0 00.44.45h3.12a.44.44 0 00.44-.44v-2.76A1.78 1.78 0 0131.78 34h.44A1.78 1.78 0 0134 35.78v2.78a.44.44 0 00.44.44h3.12a.45.45 0 00.44-.45V33h2.12c.48 0 .6-.29.27-.64z" fill-rule="evenodd" fill="#4bb34b"/></svg>